<svg width="11" height="13" viewBox="0 0 11 13" fill="none" xmlns="http://www.w3.org/2000/svg">
<path d="M10.5122 1.43689L10.7277 9.00215C10.7343 9.23366 10.6534 9.46232 10.503 9.63781C10.3525 9.81331 10.1447 9.92128 9.92533 9.93796C9.70594 9.95464 9.49291 9.87867 9.33311 9.72676C9.17332 9.57486 9.07984 9.35945 9.07324 9.12794L8.91782 3.67223L1.7294 12.0549C1.57867 12.2307 1.37052 12.3388 1.15075 12.3555C0.930976 12.3722 0.717581 12.2961 0.557507 12.144C0.397433 11.9918 0.303792 11.776 0.297185 11.5441C0.290579 11.3122 0.371547 11.0831 0.522277 10.9073L7.7107 2.52471L2.54059 2.91781C2.3212 2.9345 2.10817 2.85853 1.94838 2.70662C1.78858 2.55471 1.6951 2.33931 1.68851 2.1078C1.68191 1.87629 1.76274 1.64763 1.91321 1.47213C2.06368 1.29663 2.27146 1.18867 2.49086 1.17199L9.66007 0.626876C9.87946 0.610195 10.0925 0.686164 10.2523 0.838072C10.4121 0.989979 10.5056 1.20538 10.5122 1.43689Z" fill="white"/>
</svg>
