<svg width="16" height="10" viewBox="0 0 16 10" fill="none" xmlns="http://www.w3.org/2000/svg">
<path d="M14.7674 7.115C14.6352 7.28397 14.4522 7.40594 14.2453 7.46289C14.0384 7.51984 13.8187 7.50875 13.6187 7.43125L10.5562 6.34438L10.5381 6.3375C10.3849 6.27623 10.2493 6.17802 10.1433 6.05164C10.0373 5.92525 9.96422 5.77461 9.93056 5.61313L9.54243 3.75375C8.53547 3.41064 7.44286 3.41306 6.43743 3.76063L6.06868 5.60563C6.03616 5.76889 5.96339 5.92145 5.85698 6.04948C5.75056 6.1775 5.61387 6.27693 5.45931 6.33875L5.44118 6.34563L2.37868 7.43125C2.265 7.47605 2.14399 7.49936 2.02181 7.5C1.86971 7.50028 1.71955 7.46586 1.58277 7.39936C1.44598 7.33286 1.32616 7.23603 1.23243 7.11625C0.155555 5.7275 0.27618 3.88438 1.52556 2.63438C5.03493 -0.876249 10.9631 -0.876249 14.4743 2.63438C15.7237 3.88313 15.8443 5.72625 14.7674 7.115ZM13.4999 9H2.49993C2.36732 9 2.24015 9.05268 2.14638 9.14645C2.05261 9.24022 1.99993 9.36739 1.99993 9.5C1.99993 9.63261 2.05261 9.75979 2.14638 9.85355C2.24015 9.94732 2.36732 10 2.49993 10H13.4999C13.6325 10 13.7597 9.94732 13.8535 9.85355C13.9473 9.75979 13.9999 9.63261 13.9999 9.5C13.9999 9.36739 13.9473 9.24022 13.8535 9.14645C13.7597 9.05268 13.6325 9 13.4999 9Z" fill="white"/>
</svg>
